<svg width="20" height="11" viewBox="0 0 20 11" fill="none" xmlns="http://www.w3.org/2000/svg">
<path d="M19.5846 0.42252C19.4518 0.288638 19.2939 0.182372 19.1198 0.109854C18.9457 0.0373357 18.759 0 18.5705 0C18.3819 0 18.1952 0.0373357 18.0211 0.109854C17.8471 0.182372 17.6891 0.288638 17.5563 0.42252L11.0142 6.96462C10.8814 7.0985 10.7234 7.20477 10.5493 7.27729C10.3753 7.34981 10.1886 7.38714 10 7.38714C9.81143 7.38714 9.62473 7.34981 9.45067 7.27729C9.2766 7.20477 9.11862 7.0985 8.98583 6.96462L2.44371 0.42252C2.31092 0.288638 2.15294 0.182372 1.97887 0.109854C1.80481 0.0373357 1.61811 0 1.42954 0C1.24097 0 1.05427 0.0373357 0.880208 0.109854C0.706143 0.182372 0.54816 0.288638 0.415371 0.42252C0.149328 0.69015 0 1.05218 0 1.42955C0 1.80691 0.149328 2.16894 0.415371 2.43657L6.97177 8.99296C7.77525 9.79544 8.86441 10.2462 10 10.2462C11.1356 10.2462 12.2247 9.79544 13.0282 8.99296L19.5846 2.43657C19.8507 2.16894 20 1.80691 20 1.42955C20 1.05218 19.8507 0.69015 19.5846 0.42252Z" fill="#560116"/>
</svg>
