<svg width="29" height="29" viewBox="0 0 29 29" fill="none" xmlns="http://www.w3.org/2000/svg">
<g clip-path="url(#clip0_185_252)">
<path d="M2.99475 17.0783C4.28141 17.0783 5.32446 16.0352 5.32446 14.7486C5.32446 13.4619 4.28141 12.4189 2.99475 12.4189C1.70809 12.4189 0.665039 13.4619 0.665039 14.7486C0.665039 16.0352 1.70809 17.0783 2.99475 17.0783Z" fill="#374957"/>
<path d="M14.6432 17.0783C15.9298 17.0783 16.9729 16.0352 16.9729 14.7486C16.9729 13.4619 15.9298 12.4189 14.6432 12.4189C13.3565 12.4189 12.3135 13.4619 12.3135 14.7486C12.3135 16.0352 13.3565 17.0783 14.6432 17.0783Z" fill="#374957"/>
<path d="M26.2916 17.0783C27.5783 17.0783 28.6213 16.0352 28.6213 14.7486C28.6213 13.4619 27.5783 12.4189 26.2916 12.4189C25.005 12.4189 23.9619 13.4619 23.9619 14.7486C23.9619 16.0352 25.005 17.0783 26.2916 17.0783Z" fill="#374957"/>
</g>
<defs>
<clipPath id="clip0_185_252">
<rect width="27.9565" height="27.9565" fill="white" transform="translate(0.665039 0.769958)"/>
</clipPath>
</defs>
</svg>
