<svg width="132" height="119" viewBox="0 0 132 119" fill="none" xmlns="http://www.w3.org/2000/svg">
<path d="M95.7132 25.2048H131.999V8.14812C131.598 2.89063 129.556 1.32017 123.96 0H36.7208C32.186 0.526485 30.11 1.83237 28.2468 8.14812H63.338V20.5333H28.2468V32.7011H69.7478V43.9998H21.511V56.1677H28.2468C28.4144 64.0537 31.088 66.2789 39.7628 66.9232H122.33C130.15 66.1372 132.036 63.5865 131.999 56.1677V41.827H95.7132V25.2048Z" fill="#10B3E7"/>
<path d="M129.284 21.2937H122.765H92.0195V46.064H129.284" stroke="white" stroke-width="0.651849" stroke-dasharray="5.21 4.35"/>
<rect x="14.1233" y="20.6418" width="11.7333" height="11.7333" fill="#39B1EB"/>
<rect y="20.6418" width="11.7333" height="11.7333" fill="#5DC0EF"/>
<rect x="6.95312" y="44.1084" width="11.7333" height="11.7333" fill="#5DC0EF"/>
<rect x="100.167" y="29.7678" width="7.60491" height="7.60491" fill="#5DC0EF"/>
<path d="M59.2582 85.0937L59.1086 86.8889C58.6498 86.849 58.1512 86.8291 57.6126 86.8291C57.094 86.8291 56.6552 86.839 56.2962 86.859C56.0169 89.0531 55.8374 91.4367 55.7576 94.0098H53.6633C53.5436 93.4912 53.4837 92.803 53.4837 91.9453C53.4837 91.0876 53.5037 90.3496 53.5436 89.7313C53.6034 89.093 53.6732 88.4647 53.753 87.8463C53.8328 87.228 53.8727 86.869 53.8727 86.7692C53.5934 86.7493 52.9352 86.7393 51.898 86.7393C50.8608 86.7393 50.1427 86.7593 49.7438 86.7992C47.43 89.9108 45.2958 92.2744 43.341 93.8901C41.3863 95.4858 39.4315 96.2837 37.4768 96.2837C36.5194 96.2837 35.7215 95.9944 35.0832 95.416C34.425 94.8375 34.0959 94.0696 34.0959 93.1122C34.0959 91.2971 35.4722 89.6415 38.2248 88.1455C40.9973 86.6496 44.5777 85.6423 48.9659 85.1237C49.4845 84.3258 50.4519 83.0991 51.8681 81.4436C53.2843 79.7681 54.6805 78.312 56.0568 77.0753C56.6552 75.6791 57.124 74.7117 57.463 74.1731C57.8221 73.6146 58.1711 73.3354 58.5102 73.3354C58.8493 73.3354 59.1286 73.465 59.348 73.7243C59.5674 73.9836 59.6771 74.3227 59.6771 74.7416C59.6771 75.1405 59.4477 75.7389 58.9889 76.5368C58.5501 77.3147 58.0913 78.5314 57.6126 80.1869C57.1339 81.8225 56.8048 83.3684 56.6253 84.8245C57.6625 84.8245 58.5401 84.9142 59.2582 85.0937ZM43.9992 91.3469C45.6548 89.7712 46.9014 88.2752 47.7392 86.859C44.3882 87.0585 41.7952 87.6868 39.9601 88.7439C38.145 89.8011 37.2374 90.9281 37.2374 92.1248C37.2374 92.6434 37.407 93.0523 37.7461 93.3515C38.1051 93.6507 38.5738 93.8003 39.1523 93.8003C40.7081 93.8003 42.3238 92.9825 43.9992 91.3469ZM54.2317 84.8245C54.3714 84.1463 54.5509 83.2986 54.7703 82.2813C55.0096 81.2441 55.1493 80.6357 55.1892 80.4562C54.2317 81.3737 53.5635 82.0519 53.1845 82.4907C52.8056 82.9096 52.1374 83.7274 51.1799 84.9441C51.519 84.9242 51.9279 84.9142 52.4066 84.9142C52.9053 84.8943 53.3142 84.8743 53.6333 84.8544C53.9525 84.8344 54.1519 84.8245 54.2317 84.8245ZM69.163 83.4182C69.6616 83.4182 70.0705 83.5878 70.3897 83.9269C70.7088 84.266 70.8684 84.7048 70.8684 85.2433C70.8684 86.3204 70.2501 87.4574 69.0134 88.6542L68.2953 88.0857C68.5746 87.4674 68.7142 87.0186 68.7142 86.7393C68.7142 86.2008 68.415 85.9315 67.8166 85.9315C67.2182 85.9315 66.6497 86.3105 66.1112 87.0684C65.5726 87.8264 64.9343 89.0032 64.1963 90.5989C63.4783 92.1747 62.9297 93.2917 62.5508 93.9499L60.8453 93.2019C61.9424 90.7086 62.5707 89.2426 62.7303 88.8038C63.2688 87.2479 63.5381 85.2733 63.5381 82.8797L65.2136 82.4309C65.1538 83.7274 65.064 84.7347 64.9443 85.4528C64.8246 86.1509 64.5354 87.2978 64.0767 88.8935C66.0912 85.2433 67.7867 83.4182 69.163 83.4182ZM83.8677 90.3895L84.496 90.8682C84.0572 91.7459 83.4488 92.4839 82.6709 93.0823C81.913 93.6807 81.2248 93.9798 80.6065 93.9798C79.9882 93.9798 79.4995 93.8003 79.1404 93.4413C78.7814 93.0823 78.6019 92.6335 78.6019 92.0949C78.6019 91.5564 78.941 90.6189 79.6191 89.2825C80.3173 87.9261 80.6663 86.9288 80.6663 86.2905C80.6663 86.0113 80.5467 85.7619 80.3073 85.5425C80.0879 85.3032 79.8186 85.1835 79.4995 85.1835C78.4822 85.1835 77.455 85.9614 76.4178 87.5172C75.3805 89.0531 74.2237 91.2771 72.9471 94.1893L71.1519 93.561C71.5309 91.2472 72.0694 88.9933 72.7676 86.7992C73.4856 84.5851 74.1439 82.9994 74.7423 82.0419L75.969 82.4309C75.4105 83.8471 74.7024 86.2905 73.8447 89.7612C76.5973 85.0538 79.1305 82.7002 81.4442 82.7002C81.9429 82.7002 82.3518 82.8697 82.6709 83.2088C83.01 83.5479 83.1796 83.9468 83.1796 84.4056C83.1796 84.8644 83.1197 85.2832 83.0001 85.6622C82.8804 86.0212 82.5014 86.8789 81.8631 88.2353C81.2448 89.5717 80.9356 90.4094 80.9356 90.7485C80.9356 91.0876 81.0353 91.3569 81.2348 91.5564C81.4343 91.7359 81.6238 91.8256 81.8033 91.8256C81.9828 91.8256 82.1324 91.7957 82.2521 91.7359C82.3717 91.676 82.5014 91.5863 82.641 91.4666C82.8006 91.3469 82.9402 91.2372 83.0599 91.1375C83.1796 91.0378 83.3192 90.9081 83.4788 90.7485C83.6583 90.569 83.7879 90.4493 83.8677 90.3895ZM97.9561 90.9879L98.6442 91.4965C98.365 92.0949 97.8464 92.6634 97.0884 93.2019C96.3504 93.7405 95.6722 94.0098 95.0539 94.0098C93.877 94.0098 93.2886 93.3914 93.2886 92.1548C93.2886 91.5763 93.4382 90.8882 93.7374 90.0903L92.6304 91.2272C91.5533 92.3243 90.6158 93.0623 89.818 93.4413C89.0401 93.8203 88.2721 94.0098 87.5142 94.0098C86.7562 94.0098 86.1778 93.8003 85.7788 93.3815C85.3998 92.9426 85.2104 92.3442 85.2104 91.5863C85.2104 90.19 85.7489 88.8137 86.826 87.4574C87.9031 86.0811 89.2794 84.9641 90.9549 84.1064C92.6304 83.2487 94.3059 82.8099 95.9814 82.7899L96.0412 83.7773L94.7846 84.0466C92.9695 84.4455 91.3638 85.2433 89.9676 86.4401C88.5913 87.6369 87.9031 88.8337 87.9031 90.0305C87.9031 91.2073 88.3818 91.7957 89.3393 91.7957C90.2368 91.7957 91.3439 91.1674 92.6603 89.9108C93.9768 88.6542 95.0738 87.1781 95.9515 85.4827L97.2081 86.2307C95.9714 88.724 95.3531 90.3097 95.3531 90.9879C95.3531 91.2671 95.4428 91.5065 95.6224 91.706C95.8218 91.8855 96.0113 91.9752 96.1908 91.9752C96.3903 91.9752 96.5199 91.9653 96.5798 91.9453C96.6396 91.9254 96.6995 91.9054 96.7593 91.8855C96.8191 91.8456 96.8889 91.7957 96.9687 91.7359C97.0685 91.676 97.1483 91.6162 97.2081 91.5564C97.2879 91.4965 97.4076 91.4068 97.5671 91.2871C97.7267 91.1674 97.8563 91.0677 97.9561 90.9879ZM111.143 90.958L111.891 91.6162C110.734 93.5111 109.508 94.4586 108.211 94.4586C107.413 94.4586 106.596 93.8701 105.758 92.6933C104.92 91.5165 104.501 90.5491 104.501 89.7911C104.501 89.3124 105.219 88.8337 106.655 88.355C107.194 88.1755 107.683 87.9062 108.121 87.5471C108.58 87.1682 108.81 86.7792 108.81 86.3803C108.81 85.9814 108.7 85.6822 108.481 85.4827C108.261 85.2633 107.982 85.1536 107.643 85.1536C105.449 85.353 103.155 88.3051 100.761 94.0098L98.9362 93.3815C98.9362 92.5238 100.093 89.0531 102.407 82.9695C104.741 76.8858 106.396 73.2057 107.373 71.9291L108.84 72.4677C106.147 77.1551 103.893 82.6004 102.078 88.8038C103.634 86.47 104.97 84.9142 106.087 84.1363C107.204 83.3584 108.271 82.9695 109.288 82.9695C109.907 82.9695 110.395 83.1589 110.754 83.5379C111.133 83.9169 111.323 84.4056 111.323 85.004C111.323 85.5824 111.173 86.111 110.874 86.5897C110.595 87.0684 110.186 87.4873 109.647 87.8463C108.869 88.3649 107.912 88.8736 106.775 89.3722C106.955 90.3097 107.264 91.0178 107.703 91.4965C108.141 91.9752 108.64 92.2146 109.199 92.2146C109.498 92.2146 110.146 91.7957 111.143 90.958Z" fill="#1DA6EA"/>
<path d="M37.3184 112.638L37.0903 113.155C36.0966 112.982 35.5236 112.891 35.3716 112.881C34.8747 114.23 34.1649 115.294 33.2422 116.075C32.3194 116.856 31.2852 117.246 30.1394 117.246C29.5208 117.246 29.0037 117.079 28.588 116.744C28.1722 116.41 27.9644 115.994 27.9644 115.497C27.9644 114.625 28.5626 113.859 29.7591 113.2C30.9658 112.541 32.4259 112.212 34.1396 112.212C34.3728 112.212 34.5502 112.217 34.6719 112.227C34.8544 111.842 35.0014 111.431 35.113 110.995C34.464 111.431 33.7694 111.649 33.0292 111.649C32.2992 111.649 31.6857 111.39 31.1888 110.873C30.7021 110.346 30.4588 109.656 30.4588 108.805C30.4588 107.943 30.7427 107.04 31.3105 106.097C31.8885 105.144 32.6439 104.358 33.5768 103.74C34.5198 103.121 35.478 102.812 36.4514 102.812C37.0193 102.812 37.5567 102.913 38.0637 103.116C38.5707 103.309 38.9509 103.542 39.2044 103.816L38.3831 104.804C37.9674 104.48 37.6733 104.262 37.5009 104.15C37.0548 103.846 36.5782 103.694 36.0712 103.694C35.0268 103.694 34.0584 104.201 33.1661 105.215C32.2738 106.219 31.8277 107.314 31.8277 108.5C31.8277 109.149 32.0102 109.661 32.3752 110.037C32.7403 110.412 33.2168 110.599 33.8049 110.599C34.4032 110.599 34.9406 110.457 35.4172 110.174C36.0053 108.622 36.5528 107.846 37.0598 107.846C37.3539 107.846 37.5009 107.988 37.5009 108.272C37.5009 108.556 37.3894 108.886 37.1663 109.261C36.9534 109.626 36.6745 109.956 36.3298 110.25C35.914 111.365 35.6707 112.034 35.5997 112.257C36.3095 112.338 36.8824 112.465 37.3184 112.638ZM30.8847 116.212C31.5742 116.212 32.2535 115.892 32.9228 115.254C33.6021 114.615 34.1142 113.814 34.459 112.85C33.0901 112.85 31.9291 113.079 30.9759 113.535C30.0329 114.001 29.5614 114.564 29.5614 115.223C29.5614 115.527 29.678 115.766 29.9112 115.938C30.1546 116.121 30.4791 116.212 30.8847 116.212ZM43.9776 110.721L44.3275 110.995C44.0131 111.431 43.5822 111.796 43.0346 112.09C42.4871 112.374 41.9547 112.516 41.4376 112.516C40.9205 112.516 40.5047 112.364 40.1904 112.06C39.8761 111.755 39.7189 111.355 39.7189 110.858C39.7189 109.925 40.2107 109.007 41.1942 108.105C42.1879 107.203 43.1918 106.751 44.2058 106.751C44.875 106.751 45.2096 107.015 45.2096 107.542C45.2096 108.09 44.8547 108.642 44.1449 109.2C43.4453 109.758 42.4567 110.265 41.179 110.721C41.2703 110.954 41.4122 111.137 41.6049 111.269C41.7976 111.4 41.9953 111.466 42.1981 111.466C42.6341 111.466 43.2273 111.218 43.9776 110.721ZM41.103 110.265C41.9243 109.981 42.629 109.626 43.2171 109.2C43.8053 108.774 44.0993 108.384 44.0993 108.029C44.0993 107.897 44.0486 107.781 43.9472 107.679C43.8458 107.578 43.7292 107.527 43.5974 107.527C43.1208 107.527 42.6037 107.826 42.046 108.424C41.4984 109.013 41.1841 109.626 41.103 110.265ZM48.9813 110.812L49.3159 111.193C49.0624 111.588 48.7531 111.897 48.3881 112.12C48.0332 112.343 47.6732 112.455 47.3082 112.455C46.9431 112.455 46.6542 112.354 46.4412 112.151C46.2283 111.938 46.1218 111.649 46.1218 111.284C46.1218 110.432 46.4412 109.256 47.08 107.755C46.5629 107.836 46.0458 107.958 45.5286 108.12L45.4222 107.527L45.4069 107.512C45.9139 107.299 46.5781 107.127 47.3994 106.995C47.4806 106.843 47.6631 106.473 47.947 105.884C48.5148 104.718 48.9204 103.963 49.1638 103.618L49.8178 103.877C49.7164 104.1 49.5389 104.475 49.2855 105.002C49.032 105.519 48.748 106.107 48.4337 106.767C48.89 106.736 49.25 106.721 49.5136 106.721C49.7772 106.721 49.98 106.761 50.122 106.843V107.497C49.98 107.466 49.7722 107.451 49.4984 107.451C49.2348 107.451 48.7582 107.497 48.0687 107.588C47.4704 108.926 47.1713 109.9 47.1713 110.508C47.1713 110.741 47.2423 110.934 47.3842 111.086C47.5363 111.238 47.7341 111.314 47.9774 111.314C48.2309 111.314 48.5655 111.147 48.9813 110.812ZM61.8301 107.132C62.0836 107.132 62.2915 107.218 62.4537 107.39C62.616 107.563 62.6971 107.786 62.6971 108.059C62.6971 108.607 62.3827 109.185 61.7541 109.793L61.389 109.504C61.531 109.19 61.602 108.962 61.602 108.82C61.602 108.546 61.4499 108.409 61.1457 108.409C60.8415 108.409 60.5525 108.602 60.2787 108.987C60.0049 109.373 59.6805 109.971 59.3053 110.782C58.9402 111.583 58.6614 112.151 58.4687 112.485L57.6018 112.105C58.1595 110.838 58.4789 110.092 58.56 109.869C58.8338 109.078 58.9707 108.075 58.9707 106.858L59.8224 106.63C59.792 107.289 59.7464 107.801 59.6855 108.166C59.6247 108.521 59.4777 109.104 59.2444 109.915C60.2686 108.059 61.1305 107.132 61.8301 107.132ZM65.9913 106.067C65.4234 106.067 65.1395 105.839 65.1395 105.382C65.1395 105.129 65.2105 104.916 65.3524 104.744C65.4944 104.571 65.6769 104.485 65.9 104.485C66.1231 104.485 66.3056 104.551 66.4475 104.683C66.5895 104.815 66.6605 104.987 66.6605 105.2C66.6605 105.413 66.5996 105.611 66.478 105.793C66.3563 105.976 66.1941 106.067 65.9913 106.067ZM65.7935 110.554L66.0977 110.812C65.8544 111.279 65.5299 111.679 65.1243 112.014C64.7288 112.338 64.3689 112.501 64.0444 112.501C63.4766 112.501 63.1926 112.105 63.1926 111.314C63.1926 110.331 63.5982 109.048 64.4094 107.466C64.5919 107.121 64.6984 106.919 64.7288 106.858L65.3829 107.253C65.1699 107.639 64.9063 108.252 64.5919 109.094C64.2878 109.935 64.1357 110.478 64.1357 110.721C64.1357 110.954 64.1864 111.122 64.2878 111.223C64.3892 111.324 64.5108 111.375 64.6528 111.375C64.9266 111.375 65.3068 111.101 65.7935 110.554ZM70.9906 110.356L71.3556 110.66C71.1123 111.218 70.7219 111.664 70.1845 111.999C69.6471 112.333 69.1249 112.501 68.6179 112.501C68.121 112.501 67.7053 112.343 67.3707 112.029C67.0462 111.715 66.8839 111.284 66.8839 110.736C66.8839 110.189 67.1222 109.596 67.5988 108.957C68.0754 108.318 68.6888 107.791 69.4392 107.375C70.1997 106.959 70.945 106.751 71.675 106.751C71.7764 106.751 71.9285 106.761 72.1313 106.782L72.0857 107.375C70.9703 107.426 70.0425 107.765 69.3023 108.394C68.5722 109.023 68.2072 109.692 68.2072 110.402C68.2072 110.696 68.2985 110.934 68.481 111.117C68.6635 111.299 68.9018 111.39 69.1958 111.39C69.6623 111.39 70.2605 111.046 70.9906 110.356ZM78.2053 111.406L78.5552 111.695C78.1293 112.404 77.5767 112.759 76.8973 112.759C76.3092 112.759 76.0151 112.47 76.0151 111.892C76.0151 111.558 76.1571 111.025 76.441 110.295C76.7351 109.555 76.8821 109.068 76.8821 108.835C76.8821 108.541 76.6945 108.394 76.3193 108.394C75.9441 108.394 75.4321 108.8 74.7831 109.611C74.1443 110.412 73.6069 111.345 73.1709 112.409L72.2735 112.09C72.8008 109.443 74.1798 105.9 76.4106 101.458L77.1559 101.702C76.0303 103.953 75.2242 105.742 74.7375 107.071C74.2305 108.45 73.8503 109.591 73.5968 110.493C74.3775 109.205 75.0468 108.313 75.6045 107.816C76.1723 107.319 76.6641 107.071 77.0798 107.071C77.8302 107.071 78.2053 107.339 78.2053 107.877C78.2053 108.211 78.0178 108.81 77.6426 109.672C77.2674 110.534 77.0798 111.106 77.0798 111.39C77.0798 111.674 77.2167 111.816 77.4905 111.816C77.6324 111.816 77.8707 111.679 78.2053 111.406ZM91.0168 106.569L90.8799 107.162C90.7075 107.142 90.4844 107.132 90.2106 107.132C89.1967 107.132 88.6897 107.466 88.6897 108.135C88.6897 108.277 88.8925 108.693 89.2981 109.383C89.7138 110.072 89.9217 110.534 89.9217 110.767C89.9217 111.314 89.7341 111.745 89.3589 112.06C88.9939 112.364 88.5021 112.516 87.8835 112.516C87.0318 112.516 86.3474 112.044 85.8302 111.101L86.4082 110.691C86.5502 110.802 86.7023 110.939 86.8645 111.101C87.0267 111.253 87.1484 111.36 87.2295 111.421C87.4222 111.593 87.6351 111.679 87.8683 111.679C88.1016 111.679 88.3044 111.598 88.4767 111.436C88.6491 111.264 88.7353 111.056 88.7353 110.812C88.7353 110.559 88.5122 110.092 88.0661 109.413C87.63 108.734 87.412 108.257 87.412 107.983C87.412 107.486 87.6199 107.106 88.0356 106.843C88.4615 106.579 89.0141 106.447 89.6935 106.447C90.383 106.447 90.8241 106.488 91.0168 106.569ZM93.3616 111.056L93.681 111.314C93.3363 111.852 93.0372 112.242 92.7837 112.485C92.5403 112.719 92.2665 112.835 91.9623 112.835C91.6581 112.835 91.4097 112.714 91.2171 112.47C91.0244 112.227 90.9281 111.923 90.9281 111.558C90.9281 110.848 91.3945 109.322 92.3274 106.979C93.2602 104.627 94.2185 102.559 95.202 100.774L95.8713 101.139C94.8775 103.066 93.9802 104.982 93.1791 106.888C92.3781 108.784 91.9775 110.148 91.9775 110.98C91.9775 111.456 92.155 111.695 92.5099 111.695C92.7938 111.695 93.0777 111.482 93.3616 111.056ZM99.3634 107.999C99.627 108.435 99.7589 108.916 99.7589 109.443C99.7589 110.265 99.4749 111 98.9071 111.649C98.3393 112.288 97.67 112.607 96.8994 112.607C96.3113 112.607 95.8499 112.44 95.5153 112.105C95.1908 111.76 95.0286 111.289 95.0286 110.691C95.0286 109.727 95.4038 108.866 96.1541 108.105C96.9045 107.334 97.7461 106.949 98.679 106.949C98.8513 106.949 98.973 106.954 99.044 106.964L99.0896 107.466C98.2784 107.466 97.6041 107.699 97.0667 108.166C96.5293 108.632 96.2606 109.231 96.2606 109.961C96.2606 110.397 96.3671 110.752 96.58 111.025C96.7929 111.289 97.1022 111.421 97.5078 111.421C97.9235 111.421 98.2531 111.238 98.4964 110.873C98.7398 110.508 98.8615 110.082 98.8615 109.596C98.8615 109.099 98.7651 108.648 98.5725 108.242L99.3634 107.999ZM108.614 106.599L109.039 106.995L108.127 108.105C107.052 109.433 106.256 110.752 105.739 112.06C105.607 112.333 105.47 112.47 105.328 112.47C105.196 112.47 105.085 112.455 104.994 112.425C104.912 112.384 104.816 112.252 104.705 112.029C104.603 111.806 104.532 111.537 104.492 111.223C104.451 110.909 104.416 110.64 104.385 110.417C104.355 110.194 104.335 110.032 104.324 109.93C104.314 109.819 104.299 109.707 104.279 109.596C104.269 109.474 104.258 109.383 104.248 109.322C104.238 109.261 104.228 109.2 104.218 109.139C104.208 109.078 104.193 109.023 104.172 108.972C104.152 108.911 104.137 108.86 104.127 108.82C104.116 108.769 104.091 108.688 104.051 108.577C104.02 108.465 103.995 108.369 103.975 108.288C103.447 108.855 102.996 109.525 102.621 110.295C102.479 110.589 102.2 111.177 101.784 112.06C101.693 112.252 101.566 112.349 101.404 112.349C101.252 112.349 101.125 112.333 101.024 112.303C100.933 112.262 100.836 112.141 100.735 111.938C100.633 111.735 100.557 111.431 100.507 111.025C100.263 108.987 100.03 107.598 99.807 106.858C100.101 106.777 100.395 106.736 100.689 106.736C100.74 106.827 100.806 107.106 100.887 107.573C101.059 108.475 101.277 109.535 101.541 110.752C102.038 109.798 102.585 108.921 103.184 108.12C103.792 107.309 104.193 106.903 104.385 106.903C104.608 106.903 104.76 107.061 104.841 107.375C104.933 107.679 105.009 108.196 105.07 108.926C105.141 109.646 105.232 110.25 105.343 110.736C106.297 109.104 107.387 107.725 108.614 106.599ZM111.333 111.056L111.652 111.314C111.308 111.852 111.008 112.242 110.755 112.485C110.512 112.719 110.238 112.835 109.934 112.835C109.629 112.835 109.381 112.714 109.188 112.47C108.996 112.227 108.899 111.923 108.899 111.558C108.899 110.848 109.366 109.322 110.299 106.979C111.232 104.627 112.19 102.559 113.173 100.774L113.843 101.139C112.849 103.066 111.951 104.982 111.15 106.888C110.349 108.784 109.949 110.148 109.949 110.98C109.949 111.456 110.126 111.695 110.481 111.695C110.765 111.695 111.049 111.482 111.333 111.056ZM119.251 111.558L119.297 111.953C119.256 111.984 118.785 112.166 117.882 112.501C117.761 113.17 117.603 113.829 117.411 114.478C117.228 115.137 117.041 115.634 116.848 115.968C116.665 116.313 116.447 116.653 116.194 116.988C115.687 117.657 115.003 117.991 114.141 117.991C113.715 117.991 113.375 117.86 113.122 117.596C112.868 117.332 112.741 116.972 112.741 116.516C112.741 114.762 114.212 113.352 117.152 112.288L117.974 109.398C117.101 110.706 116.316 111.512 115.616 111.816C115.271 111.978 114.906 112.06 114.521 112.06C114.146 112.06 113.842 111.938 113.608 111.695C113.385 111.451 113.274 111.096 113.274 110.63C113.274 110.163 113.431 109.514 113.745 108.683C114.07 107.841 114.43 107.137 114.825 106.569L115.57 106.888C115.54 106.919 115.398 107.187 115.144 107.694C114.698 108.617 114.475 109.302 114.475 109.748C114.475 110.194 114.561 110.493 114.734 110.645C114.906 110.797 115.16 110.873 115.494 110.873C115.829 110.873 116.204 110.675 116.62 110.28C117.046 109.874 117.7 109.078 118.582 107.892L119.129 108.211C119.048 108.546 118.866 109.154 118.582 110.037C118.308 110.909 118.121 111.578 118.019 112.044L119.251 111.558ZM117.061 112.744C116.422 113.038 115.859 113.373 115.373 113.748C114.46 114.437 114.004 115.107 114.004 115.756C114.004 115.999 114.075 116.197 114.217 116.349C114.359 116.501 114.536 116.577 114.749 116.577C115.763 116.577 116.534 115.299 117.061 112.744Z" fill="#70D3FD"/>
</svg>
