<svg width="184" height="53" viewBox="0 0 184 53" fill="none" xmlns="http://www.w3.org/2000/svg">
<path d="M74.6853 19.6674H103V6.358C102.687 2.25557 101.093 1.03013 96.7264 0H28.6534C25.1149 0.410818 23.495 1.4298 22.0411 6.358H49.4229V16.0222H22.0411V25.5168H54.4245V34.3332H16.7852V43.8278H22.0411C22.1719 49.9813 24.2581 51.7176 31.0271 52.2204H95.4548C101.556 51.6071 103.028 49.6168 103 43.8278V32.6377H74.6853V19.6674Z" fill="#10B3E7"/>
<path d="M100.88 16.6155H95.7938H71.803V35.9439H100.88" stroke="white" stroke-width="0.50864" stroke-dasharray="4.07 3.39"/>
<rect x="11.0205" y="16.1069" width="9.15552" height="9.15552" fill="#39B1EB"/>
<rect y="16.1069" width="9.15552" height="9.15552" fill="#5DC0EF"/>
<rect x="5.42554" y="34.4179" width="9.15552" height="9.15552" fill="#5DC0EF"/>
<rect x="78.1611" y="23.2278" width="5.93413" height="5.93413" fill="#5DC0EF"/>
<path d="M133.35 16.0428L133.234 17.4436C132.876 17.4124 132.487 17.3969 132.066 17.3969C131.662 17.3969 131.319 17.4047 131.039 17.4202C130.821 19.1323 130.681 20.9922 130.619 23H128.985C128.891 22.5953 128.845 22.0584 128.845 21.3891C128.845 20.7198 128.86 20.144 128.891 19.6615C128.938 19.1634 128.992 18.6732 129.055 18.1907C129.117 17.7082 129.148 17.428 129.148 17.3502C128.93 17.3346 128.417 17.3268 127.607 17.3268C126.798 17.3268 126.238 17.3424 125.926 17.3735C124.121 19.8016 122.455 21.6459 120.93 22.9066C119.405 24.1518 117.88 24.7743 116.354 24.7743C115.607 24.7743 114.985 24.5486 114.487 24.0973C113.973 23.6459 113.716 23.0467 113.716 22.2996C113.716 20.8833 114.79 19.5914 116.938 18.4241C119.101 17.2568 121.895 16.4708 125.319 16.0661C125.724 15.4436 126.479 14.4864 127.584 13.1945C128.689 11.8872 129.778 10.751 130.852 9.78599C131.319 8.69649 131.685 7.94163 131.95 7.5214C132.23 7.0856 132.502 6.8677 132.767 6.8677C133.031 6.8677 133.249 6.96887 133.42 7.1712C133.592 7.37354 133.677 7.63813 133.677 7.96498C133.677 8.27626 133.498 8.74319 133.14 9.36575C132.798 9.97276 132.44 10.9222 132.066 12.214C131.693 13.4903 131.436 14.6965 131.296 15.8327C132.105 15.8327 132.79 15.9027 133.35 16.0428ZM121.444 20.9222C122.736 19.6926 123.708 18.5253 124.362 17.4202C121.747 17.5759 119.724 18.0661 118.292 18.891C116.876 19.716 116.168 20.5953 116.168 21.5292C116.168 21.9339 116.3 22.2529 116.564 22.4864C116.845 22.7198 117.21 22.8366 117.662 22.8366C118.876 22.8366 120.136 22.1984 121.444 20.9222ZM129.428 15.8327C129.537 15.3035 129.677 14.642 129.848 13.8482C130.035 13.0389 130.144 12.5642 130.175 12.4241C129.428 13.1401 128.907 13.6693 128.611 14.0117C128.315 14.3385 127.794 14.9767 127.047 15.9261C127.312 15.9105 127.631 15.9027 128.004 15.9027C128.393 15.8872 128.712 15.8716 128.961 15.856C129.21 15.8405 129.366 15.8327 129.428 15.8327ZM141.079 14.7354C141.468 14.7354 141.787 14.8677 142.036 15.1323C142.285 15.3969 142.41 15.7393 142.41 16.1595C142.41 17 141.927 17.8872 140.962 18.821L140.402 18.3774C140.62 17.8949 140.729 17.5447 140.729 17.3268C140.729 16.9066 140.495 16.6965 140.029 16.6965C139.562 16.6965 139.118 16.9922 138.698 17.5837C138.278 18.1751 137.78 19.0934 137.204 20.3385C136.643 21.5681 136.215 22.4397 135.92 22.9533L134.589 22.3696C135.445 20.4241 135.935 19.2802 136.06 18.9377C136.48 17.7237 136.69 16.1829 136.69 14.3152L137.997 13.965C137.951 14.9767 137.881 15.7626 137.787 16.323C137.694 16.8677 137.468 17.7626 137.11 19.0078C138.682 16.1595 140.005 14.7354 141.079 14.7354ZM152.553 20.1751L153.044 20.5486C152.701 21.2335 152.226 21.8093 151.619 22.2763C151.028 22.7432 150.491 22.9767 150.009 22.9767C149.526 22.9767 149.145 22.8366 148.865 22.5564C148.584 22.2763 148.444 21.9261 148.444 21.5058C148.444 21.0856 148.709 20.3541 149.238 19.3113C149.783 18.2529 150.055 17.4747 150.055 16.9767C150.055 16.7588 149.962 16.5642 149.775 16.393C149.604 16.2062 149.394 16.1128 149.145 16.1128C148.351 16.1128 147.549 16.7198 146.74 17.9339C145.931 19.1323 145.028 20.8677 144.032 23.1401L142.631 22.6498C142.927 20.8444 143.347 19.0856 143.892 17.3735C144.452 15.6459 144.966 14.4086 145.433 13.6615L146.39 13.965C145.954 15.07 145.402 16.9767 144.732 19.6848C146.88 16.0117 148.857 14.1751 150.662 14.1751C151.051 14.1751 151.37 14.3074 151.619 14.572C151.884 14.8366 152.016 15.1479 152.016 15.5058C152.016 15.8638 151.97 16.1907 151.876 16.4864C151.783 16.7665 151.487 17.4358 150.989 18.4942C150.507 19.537 150.265 20.1907 150.265 20.4553C150.265 20.7198 150.343 20.93 150.499 21.0856C150.654 21.2257 150.802 21.2957 150.942 21.2957C151.082 21.2957 151.199 21.2724 151.293 21.2257C151.386 21.179 151.487 21.1089 151.596 21.0156C151.721 20.9222 151.83 20.8366 151.923 20.7588C152.016 20.6809 152.125 20.5798 152.25 20.4553C152.39 20.3152 152.491 20.2218 152.553 20.1751ZM163.546 20.642L164.083 21.0389C163.866 21.5058 163.461 21.9494 162.869 22.3696C162.294 22.7899 161.764 23 161.282 23C160.364 23 159.904 22.5175 159.904 21.5525C159.904 21.1012 160.021 20.5642 160.255 19.9416L159.391 20.8288C158.55 21.6848 157.819 22.2607 157.196 22.5564C156.589 22.8521 155.99 23 155.399 23C154.807 23 154.356 22.8366 154.045 22.5097C153.749 22.1673 153.601 21.7004 153.601 21.1089C153.601 20.0195 154.021 18.9455 154.862 17.8872C155.702 16.8132 156.776 15.9416 158.083 15.2724C159.391 14.6031 160.698 14.2607 162.006 14.2451L162.052 15.0156L161.072 15.2257C159.655 15.537 158.403 16.1595 157.313 17.0934C156.239 18.0272 155.702 18.9611 155.702 19.8949C155.702 20.8132 156.076 21.2724 156.823 21.2724C157.523 21.2724 158.387 20.7821 159.414 19.8016C160.441 18.821 161.297 17.6693 161.982 16.3463L162.963 16.93C161.998 18.8755 161.515 20.1128 161.515 20.642C161.515 20.8599 161.585 21.0467 161.725 21.2023C161.881 21.3424 162.029 21.4125 162.169 21.4125C162.325 21.4125 162.426 21.4047 162.473 21.3891C162.519 21.3735 162.566 21.358 162.613 21.3424C162.659 21.3113 162.714 21.2724 162.776 21.2257C162.854 21.179 162.916 21.1323 162.963 21.0856C163.025 21.0389 163.118 20.9689 163.243 20.8755C163.368 20.7821 163.469 20.7043 163.546 20.642ZM173.837 20.6187L174.42 21.1323C173.517 22.6109 172.56 23.3502 171.549 23.3502C170.926 23.3502 170.288 22.8911 169.634 21.9728C168.981 21.0545 168.654 20.2996 168.654 19.7082C168.654 19.3346 169.214 18.9611 170.335 18.5875C170.755 18.4475 171.136 18.2374 171.479 17.9572C171.837 17.6615 172.016 17.358 172.016 17.0467C172.016 16.7354 171.93 16.5019 171.759 16.3463C171.588 16.1751 171.37 16.0895 171.105 16.0895C169.393 16.2451 167.603 18.5486 165.735 23L164.311 22.5097C164.311 21.8405 165.214 19.1323 167.019 14.3852C168.84 9.63813 170.132 6.76653 170.895 5.77042L172.039 6.19066C169.938 9.84825 168.179 14.0973 166.763 18.9377C167.977 17.1167 169.019 15.9027 169.891 15.2957C170.763 14.6887 171.595 14.3852 172.389 14.3852C172.872 14.3852 173.253 14.5331 173.533 14.8288C173.829 15.1245 173.977 15.5058 173.977 15.9728C173.977 16.4241 173.86 16.8366 173.626 17.2101C173.409 17.5837 173.089 17.9105 172.669 18.1907C172.062 18.5953 171.315 18.9922 170.428 19.3813C170.568 20.1128 170.809 20.6654 171.152 21.0389C171.494 21.4125 171.883 21.5992 172.319 21.5992C172.553 21.5992 173.058 21.2724 173.837 20.6187Z" fill="#1DA6EA"/>
<path d="M119.231 38.095L119.053 38.4985C118.277 38.364 117.83 38.2928 117.712 38.2849C117.324 39.3372 116.77 40.168 116.05 40.7772C115.33 41.3865 114.523 41.6911 113.629 41.6911C113.146 41.6911 112.743 41.5605 112.418 41.2994C112.094 41.0383 111.932 40.7139 111.932 40.3262C111.932 39.6458 112.399 39.0484 113.332 38.5341C114.274 38.0198 115.413 37.7627 116.75 37.7627C116.932 37.7627 117.071 37.7667 117.166 37.7746C117.308 37.4739 117.423 37.1535 117.51 36.8132C117.004 37.1535 116.462 37.3236 115.884 37.3236C115.314 37.3236 114.836 37.1218 114.448 36.7183C114.068 36.3069 113.878 35.7688 113.878 35.1042C113.878 34.4317 114.1 33.7275 114.543 32.9917C114.994 32.2479 115.583 31.6347 116.311 31.1521C117.047 30.6694 117.795 30.4281 118.554 30.4281C118.997 30.4281 119.417 30.5072 119.812 30.6655C120.208 30.8158 120.505 30.9978 120.703 31.2114L120.062 31.9828C119.737 31.7297 119.508 31.5595 119.373 31.4725C119.025 31.2351 118.653 31.1165 118.258 31.1165C117.443 31.1165 116.687 31.5121 115.991 32.3033C115.295 33.0866 114.946 33.9411 114.946 34.8668C114.946 35.3732 115.089 35.7728 115.374 36.0655C115.658 36.3583 116.03 36.5047 116.489 36.5047C116.956 36.5047 117.375 36.3939 117.747 36.1723C118.206 34.9618 118.633 34.3565 119.029 34.3565C119.259 34.3565 119.373 34.4673 119.373 34.6888C119.373 34.9104 119.286 35.1675 119.112 35.4603C118.946 35.7451 118.728 36.0022 118.459 36.2317C118.135 37.102 117.945 37.6242 117.89 37.7983C118.444 37.8616 118.891 37.9605 119.231 38.095ZM114.211 40.8841C114.749 40.8841 115.279 40.6348 115.801 40.1363C116.331 39.6379 116.731 39.0128 117 38.2612C115.931 38.2612 115.026 38.4392 114.282 38.7952C113.546 39.1592 113.178 39.5983 113.178 40.1126C113.178 40.35 113.269 40.5359 113.451 40.6704C113.641 40.8128 113.894 40.8841 114.211 40.8841ZM124.427 36.5996L124.7 36.8132C124.455 37.1535 124.118 37.4383 123.691 37.6677C123.264 37.8893 122.849 38.0001 122.445 38.0001C122.042 38.0001 121.717 37.8814 121.472 37.644C121.227 37.4066 121.104 37.0941 121.104 36.7064C121.104 35.9785 121.488 35.2624 122.255 34.5583C123.031 33.8541 123.814 33.502 124.605 33.502C125.127 33.502 125.388 33.7077 125.388 34.1191C125.388 34.5464 125.111 34.9776 124.558 35.4128C124.012 35.8479 123.24 36.2436 122.243 36.5996C122.315 36.7816 122.425 36.924 122.576 37.0269C122.726 37.1297 122.88 37.1812 123.038 37.1812C123.379 37.1812 123.842 36.9873 124.427 36.5996ZM122.184 36.2436C122.825 36.022 123.375 35.7451 123.834 35.4128C124.293 35.0805 124.522 34.7758 124.522 34.4989C124.522 34.3961 124.482 34.3051 124.403 34.226C124.324 34.1468 124.233 34.1073 124.13 34.1073C123.758 34.1073 123.355 34.3407 122.92 34.8075C122.493 35.2664 122.247 35.7451 122.184 36.2436ZM128.331 36.6708L128.592 36.9675C128.395 37.2761 128.153 37.5174 127.869 37.6915C127.592 37.8656 127.311 37.9526 127.026 37.9526C126.741 37.9526 126.516 37.8735 126.349 37.7152C126.183 37.5491 126.1 37.3236 126.1 37.0387C126.1 36.3741 126.349 35.4563 126.848 34.2853C126.444 34.3486 126.041 34.4435 125.637 34.5701L125.554 34.1073L125.542 34.0954C125.938 33.9292 126.456 33.7947 127.097 33.6919C127.16 33.5732 127.303 33.2844 127.524 32.8255C127.967 31.9156 128.284 31.3261 128.474 31.0571L128.984 31.2589C128.905 31.433 128.767 31.7257 128.569 32.1371C128.371 32.5407 128.149 32.9996 127.904 33.5139C128.26 33.4901 128.541 33.4783 128.747 33.4783C128.953 33.4783 129.111 33.5099 129.222 33.5732V34.0835C129.111 34.0598 128.949 34.0479 128.735 34.0479C128.529 34.0479 128.157 34.0835 127.619 34.1547C127.152 35.1991 126.919 35.9587 126.919 36.4334C126.919 36.6154 126.974 36.7658 127.085 36.8844C127.204 37.0031 127.358 37.0625 127.548 37.0625C127.746 37.0625 128.007 36.9319 128.331 36.6708ZM138.357 33.7987C138.555 33.7987 138.717 33.8659 138.844 34.0005C138.971 34.135 139.034 34.309 139.034 34.5227C139.034 34.9499 138.789 35.4009 138.298 35.8756L138.013 35.6501C138.124 35.4049 138.179 35.2268 138.179 35.1161C138.179 34.9024 138.061 34.7956 137.823 34.7956C137.586 34.7956 137.36 34.946 137.147 35.2466C136.933 35.5473 136.68 36.0141 136.387 36.6471C136.102 37.2721 135.885 37.7152 135.735 37.9763L135.058 37.6796C135.493 36.6906 135.742 36.1091 135.806 35.935C136.019 35.3178 136.126 34.5345 136.126 33.5851L136.791 33.407C136.767 33.9213 136.731 34.3209 136.684 34.6057C136.637 34.8827 136.522 35.3376 136.34 35.9706C137.139 34.5227 137.811 33.7987 138.357 33.7987ZM141.604 32.9679C141.161 32.9679 140.94 32.7899 140.94 32.4338C140.94 32.236 140.995 32.0699 141.106 31.9354C141.217 31.8009 141.359 31.7336 141.533 31.7336C141.707 31.7336 141.85 31.785 141.96 31.8879C142.071 31.9908 142.127 32.1253 142.127 32.2914C142.127 32.4576 142.079 32.6119 141.984 32.7543C141.889 32.8967 141.763 32.9679 141.604 32.9679ZM141.45 36.4691L141.687 36.6708C141.498 37.0348 141.244 37.3473 140.928 37.6084C140.619 37.8616 140.338 37.9882 140.085 37.9882C139.642 37.9882 139.421 37.6796 139.421 37.0625C139.421 36.295 139.737 35.2941 140.37 34.0598C140.512 33.7908 140.596 33.6325 140.619 33.5851L141.13 33.8936C140.963 34.1943 140.758 34.673 140.512 35.3297C140.275 35.9864 140.156 36.4097 140.156 36.5996C140.156 36.7816 140.196 36.9121 140.275 36.9913C140.354 37.0704 140.449 37.1099 140.56 37.1099C140.774 37.1099 141.07 36.8963 141.45 36.4691ZM145.505 36.3148L145.79 36.5521C145.6 36.9873 145.296 37.3354 144.876 37.5965C144.457 37.8576 144.05 37.9882 143.654 37.9882C143.266 37.9882 142.942 37.8656 142.681 37.6203C142.428 37.375 142.301 37.0387 142.301 36.6115C142.301 36.1842 142.487 35.7214 142.859 35.2229C143.231 34.7244 143.709 34.313 144.295 33.9886C144.888 33.6642 145.47 33.502 146.039 33.502C146.119 33.502 146.237 33.5099 146.395 33.5257L146.36 33.9886C145.49 34.0281 144.766 34.2932 144.188 34.7838C143.618 35.2743 143.333 35.7965 143.333 36.3504C143.333 36.5798 143.405 36.7658 143.547 36.9082C143.69 37.0506 143.875 37.1218 144.105 37.1218C144.469 37.1218 144.936 36.8528 145.505 36.3148ZM151.135 37.1337L151.408 37.3592C151.076 37.913 150.644 38.19 150.114 38.19C149.655 38.19 149.426 37.9645 149.426 37.5135C149.426 37.2524 149.537 36.837 149.758 36.2673C149.988 35.6897 150.102 35.3099 150.102 35.1279C150.102 34.8985 149.956 34.7838 149.663 34.7838C149.371 34.7838 148.971 35.1002 148.465 35.7332C147.966 36.3583 147.547 37.0862 147.207 37.917L146.506 37.6677C146.918 35.6027 147.994 32.8374 149.735 29.3718L150.316 29.5617C149.438 31.3182 148.809 32.7147 148.429 33.7512C148.033 34.8273 147.737 35.7174 147.539 36.4216C148.148 35.4167 148.67 34.7205 149.106 34.3328C149.549 33.9451 149.932 33.7512 150.257 33.7512C150.842 33.7512 151.135 33.9609 151.135 34.3802C151.135 34.6413 150.989 35.1082 150.696 35.7807C150.403 36.4532 150.257 36.9003 150.257 37.1218C150.257 37.3434 150.364 37.4541 150.577 37.4541C150.688 37.4541 150.874 37.3473 151.135 37.1337ZM161.132 33.3596L161.025 33.8224C160.891 33.8066 160.716 33.7987 160.503 33.7987C159.712 33.7987 159.316 34.0598 159.316 34.582C159.316 34.6928 159.474 35.0172 159.791 35.5552C160.115 36.0932 160.277 36.4532 160.277 36.6352C160.277 37.0625 160.131 37.3987 159.838 37.644C159.553 37.8814 159.17 38.0001 158.687 38.0001C158.022 38.0001 157.488 37.6321 157.085 36.8963L157.536 36.5759C157.647 36.6629 157.765 36.7697 157.892 36.8963C158.018 37.015 158.113 37.0981 158.177 37.1455C158.327 37.2801 158.493 37.3473 158.675 37.3473C158.857 37.3473 159.015 37.284 159.15 37.1574C159.284 37.0229 159.352 36.8607 159.352 36.6708C159.352 36.473 159.178 36.1091 158.829 35.5789C158.489 35.0488 158.319 34.6769 158.319 34.4633C158.319 34.0756 158.481 33.7789 158.806 33.5732C159.138 33.3675 159.569 33.2646 160.099 33.2646C160.637 33.2646 160.982 33.2963 161.132 33.3596ZM162.962 36.8607L163.211 37.0625C162.942 37.4818 162.708 37.7864 162.511 37.9763C162.321 38.1583 162.107 38.2493 161.87 38.2493C161.632 38.2493 161.438 38.1543 161.288 37.9645C161.138 37.7746 161.063 37.5372 161.063 37.2524C161.063 36.6985 161.427 35.5077 162.155 33.68C162.882 31.8444 163.63 30.2303 164.398 28.8378L164.92 29.1226C164.144 30.6259 163.444 32.1213 162.819 33.6088C162.194 35.0884 161.882 36.1526 161.882 36.8014C161.882 37.1732 162.02 37.3592 162.297 37.3592C162.518 37.3592 162.74 37.193 162.962 36.8607ZM167.645 34.4752C167.85 34.8154 167.953 35.1912 167.953 35.6027C167.953 36.2436 167.732 36.8172 167.289 37.3236C166.846 37.822 166.323 38.0713 165.722 38.0713C165.263 38.0713 164.903 37.9407 164.642 37.6796C164.389 37.4106 164.262 37.0427 164.262 36.5759C164.262 35.8242 164.555 35.1517 165.141 34.5583C165.726 33.9569 166.383 33.6563 167.111 33.6563C167.245 33.6563 167.34 33.6602 167.396 33.6681L167.431 34.0598C166.798 34.0598 166.272 34.2418 165.853 34.6057C165.433 34.9697 165.224 35.4365 165.224 36.0062C165.224 36.3464 165.307 36.6233 165.473 36.837C165.639 37.0427 165.88 37.1455 166.197 37.1455C166.521 37.1455 166.778 37.0031 166.968 36.7183C167.158 36.4334 167.253 36.1011 167.253 35.7214C167.253 35.3337 167.178 34.9816 167.028 34.6651L167.645 34.4752ZM174.863 33.3833L175.195 33.6919L174.483 34.5583C173.644 35.5948 173.023 36.6233 172.62 37.644C172.517 37.8576 172.41 37.9645 172.299 37.9645C172.196 37.9645 172.109 37.9526 172.038 37.9289C171.975 37.8972 171.9 37.7943 171.812 37.6203C171.733 37.4462 171.678 37.2365 171.646 36.9913C171.615 36.746 171.587 36.5363 171.563 36.3622C171.54 36.1882 171.524 36.0616 171.516 35.9825C171.508 35.8954 171.496 35.8084 171.48 35.7214C171.472 35.6264 171.464 35.5552 171.456 35.5077C171.449 35.4603 171.441 35.4128 171.433 35.3653C171.425 35.3178 171.413 35.2743 171.397 35.2348C171.381 35.1873 171.369 35.1477 171.362 35.1161C171.354 35.0765 171.334 35.0132 171.302 34.9262C171.278 34.8391 171.259 34.764 171.243 34.7007C170.831 35.1438 170.479 35.666 170.187 36.2673C170.076 36.4967 169.858 36.9557 169.534 37.644C169.463 37.7943 169.364 37.8695 169.237 37.8695C169.118 37.8695 169.019 37.8576 168.94 37.8339C168.869 37.8023 168.794 37.7073 168.715 37.5491C168.636 37.3908 168.576 37.1535 168.537 36.837C168.347 35.2466 168.165 34.1627 167.991 33.5851C168.22 33.5218 168.45 33.4901 168.679 33.4901C168.719 33.5613 168.77 33.7789 168.834 34.1429C168.968 34.8471 169.138 35.6739 169.344 36.6233C169.732 35.8796 170.159 35.1952 170.626 34.5701C171.1 33.9372 171.413 33.6207 171.563 33.6207C171.737 33.6207 171.856 33.7433 171.919 33.9886C171.991 34.226 172.05 34.6295 172.097 35.1991C172.153 35.7609 172.224 36.2317 172.311 36.6115C173.055 35.3376 173.905 34.2616 174.863 33.3833ZM176.985 36.8607L177.234 37.0625C176.965 37.4818 176.731 37.7864 176.534 37.9763C176.344 38.1583 176.13 38.2493 175.893 38.2493C175.655 38.2493 175.462 38.1543 175.311 37.9645C175.161 37.7746 175.086 37.5372 175.086 37.2524C175.086 36.6985 175.45 35.5077 176.178 33.68C176.905 31.8444 177.653 30.2303 178.421 28.8378L178.943 29.1226C178.167 30.6259 177.467 32.1213 176.842 33.6088C176.217 35.0884 175.905 36.1526 175.905 36.8014C175.905 37.1732 176.043 37.3592 176.32 37.3592C176.542 37.3592 176.763 37.193 176.985 36.8607ZM183.163 37.2524L183.199 37.5609C183.167 37.5847 182.799 37.7271 182.095 37.9882C182 38.5104 181.877 39.0247 181.727 39.5311C181.585 40.0454 181.438 40.4331 181.288 40.6942C181.146 40.9632 180.975 41.2282 180.778 41.4893C180.382 42.0115 179.848 42.2726 179.175 42.2726C178.843 42.2726 178.578 42.1698 178.38 41.9641C178.182 41.7583 178.084 41.4775 178.084 41.1214C178.084 39.7526 179.231 38.6528 181.525 37.822L182.166 35.5671C181.486 36.5877 180.873 37.2168 180.327 37.4541C180.058 37.5807 179.773 37.644 179.472 37.644C179.179 37.644 178.942 37.5491 178.76 37.3592C178.586 37.1693 178.499 36.8924 178.499 36.5284C178.499 36.1644 178.622 35.6581 178.867 35.0093C179.12 34.3525 179.401 33.8027 179.71 33.3596L180.291 33.6088C180.267 33.6325 180.157 33.8422 179.959 34.2378C179.611 34.9578 179.437 35.4919 179.437 35.84C179.437 36.1882 179.504 36.4216 179.638 36.5403C179.773 36.6589 179.971 36.7183 180.232 36.7183C180.493 36.7183 180.786 36.564 181.11 36.2554C181.442 35.9389 181.953 35.3178 182.641 34.3921L183.068 34.6413C183.005 34.9024 182.863 35.3772 182.641 36.0655C182.427 36.746 182.281 37.2682 182.202 37.6321L183.163 37.2524ZM181.454 38.1781C180.956 38.4075 180.517 38.6686 180.137 38.9614C179.425 39.4994 179.069 40.0216 179.069 40.528C179.069 40.7179 179.124 40.8722 179.235 40.9909C179.346 41.1095 179.484 41.1689 179.65 41.1689C180.441 41.1689 181.043 40.172 181.454 38.1781Z" fill="#70D3FD"/>
</svg>
