<svg width="56" height="55" viewBox="0 0 56 55" fill="none" xmlns="http://www.w3.org/2000/svg">
<path d="M24.1281 31.3158H9.5556C9.10091 31.3158 8.66484 31.1379 8.34333 30.8212C8.02181 30.5045 7.84119 30.0749 7.84119 29.627V16.1164C7.84119 15.6685 8.02181 15.239 8.34333 14.9223C8.66484 14.6055 9.10091 14.4276 9.5556 14.4276H22.4137C22.8684 14.4276 23.3044 14.6055 23.6259 14.9223C23.9475 15.239 24.1281 15.6685 24.1281 16.1164V34.6935C24.1281 36.933 23.225 39.0808 21.6174 40.6644C20.0098 42.2479 17.8295 43.1376 15.556 43.1376" stroke="#474747" stroke-width="3.42882" stroke-linecap="round" stroke-linejoin="round"/>
<path d="M48.987 31.3158H34.4145C33.9599 31.3158 33.5238 31.1379 33.2023 30.8212C32.8808 30.5045 32.7001 30.0749 32.7001 29.627V16.1164C32.7001 15.6685 32.8808 15.239 33.2023 14.9223C33.5238 14.6055 33.9599 14.4276 34.4145 14.4276H47.2726C47.7273 14.4276 48.1634 14.6055 48.4849 14.9223C48.8064 15.239 48.987 15.6685 48.987 16.1164V34.6935C48.987 36.933 48.0839 39.0808 46.4763 40.6644C44.8688 42.2479 42.6884 43.1376 40.415 43.1376" stroke="#474747" stroke-width="3.42882" stroke-linecap="round" stroke-linejoin="round"/>
</svg>
